/* XPM */
static char *wall_south[] = {
"64 64 16 1",
"a" c #8d6743",
"b" c #835e3e",
"c" c #815a3a",
"d" c #78593d",
"e" c #7c5536",
"f" c #775437",
"g" c #735438",
"h" c #6b543c",
"i" c #735033",
"j" c #6b4f36",
"k" c #6b4c32",
"l" c #65482f",
"m" c #584936",
"n" c #534431",
"o" c #513e29",
"p" c #483b29",
"jmhhhhhhhhjhhddhhmnmhhhhhhhhhhhhhhhhhmnmhhhhhdddddddhddhmnmjjjhh",
"bccccfeccccbaaabahngdddgbacbcccbcffeclnbaabiaaabaaaaabcffnkcebbb",
"bciiiiiceeefebaaahngddfddfiifegifeeecindaaceaaababbaacfiemlcfeba",
"iiiiiikfefifccbaajngdbdkbffiffiicbciegngaicbaabaacaaaffabnlbbcbb",
"eiiikkkieefffcaaahngfgikdfiljfgjcfiieindaaaaaaaaaaaaaaaabokcebba",
"fiiikifbaiecfdbbbjnddgggggkkgffgbcfickpgabaaaaaaaaaabaaabnlecccb",
"lollllikkkiikkkllonllollpooloolllooolonnfikkllkiecekkigfknolkikk",
"ppppppppppppppnoonnpnnnnnnoppnnpppppppnnppponnpppppppppppnnppppp",
"bbbcbdddnhaaaaaaaaabaabdbbcgnjdddddbdbdbbbbddddlnmdddddgdbdddggd",
"bbbcbaadnjaaaaabaaaaabbdcbbfpliicfficaabababceflngbikibficfecfie",
"bcccbbbinjaccbbdddaaddddbbdipkefjjffbaabcgbbefdjngdjgidilieffiii",
"cbfebaajnhaiifjjdbabbbcbbbdgnlefklieeaaabbbbcffknjikkkkkkiiidfii",
"cecccbajnlfikkjgdaababcbbadjnlieljifebaabacfefejniigjkikkkfcbffi",
"cfcbecadnmgklffebcbcceiieccknliikjkibcaaabcfcccjnccgjffgifecfiff",
"opooooopnooopoonlooooopppoopmopoooppooooooppoooonooppooppoppppop",
"mmmmnnnnmmnmmmmmmnnmmhhhmmmmhhhhhhhhhnnnmmmmmmmmhhmmmmmmmnnmmmmm",
"fecfeebcbabgjccccjnecbbbaaaaaaaaaaaaajnjggfiieffcccecccifjmeccee",
"kfciikbfiaafjiiielnfeeibaaaaabbaaaabbknjgggfiikkkkffegiiijnieiik",
"kgkkkkbcgabgjjklkmnkjcdaaaaaaaaaaaaaagnliiebegifkkkkifgielnieiii",
"kjfjkfbaebfjljfkllnlgfeaaaaaaaaaaaaaagnlkkieeeeiikkjlidiekniiikl",
"dgdgbababbbgkiegglnfabebaaaabcaabaaaajnlkifceieefiigjkfeflniiiij",
"jljljdflkkillkiklonolkllkiieeeicccccenmnkiiillolkllolllikonlklkk",
"ppoppopppppnpppppnmnpnnnooopppponnpoonmnpppppppppppppppppnmnpppp",
"ddghdhhhmjcbccddddddddddcccmnhdgggddbdbdhddhdddmnhdhhhhhhhjhhhhh",
"gikjijfjmkeeccccbcceeceeecckmdcfkkecefbfiifgjdbmncglkkkgdjhldghg",
"gklkjjkknkeffeeeceeficecccclmieikkecbcfgijfgjdennkjlllkkjdbhjjjj",
"gjjjjdjlnkebaeeefceiiceeceelnkilkiiicdggdgfgjffmnjjlklkjlkjgjlll",
"jjjljgjlnfcebceekeecbabeceilmiffkiikigkjfjkjgdemnlklkllkllllllkk",
"kllllkglngficabckccbcabeeeilnicfkifikiiidfgjgcfnnlljjlklllljkjgg",
"opooppopnooollllolllolooooopnooppooooooonoooooppnooooopoppoooooo",
"mmmmmmmmmmmmmnnnnnpnnnnnnmmmmmmmmnnmnnnmmmmmmmmmmmmnnnnmnpnnmnnn",
"aabbebaaaaaaaaaaahnceececcffgjjfggdddmnicdgddbababbbbddecmmdbabb",
"abccccaababcaaabclmeeeeiekkkljjkllkjimmicddjdcbbbbfbcfciinjbbbcb",
"accccbbccccebbbccjnieiekiklllmllllmmlnmfbbdgffiebklieefiknjbbcfa",
"bcbbceceeecbaabffjneiieeiiklmmnlljlmlnmffddigggfebbeiekfemmfebbb",
"cecceieiebeebcccfmnkieeiiikkmmllljjjkmmibabdbbaddbbfggieinjacbab",
"ieeiiiiiieeceiecbmnlieikklklmmmlgjjjknnlfcbfeeabfbbbcfkfiolcfifb",
"oooooooooooopppoonmooopppppppppppppppnnpppooppoopooopppppnnooppo",
"hhhhhhhhmmhhhhjhhhhhhhhhmhhhmmhhhhhhhhhhhdhhdhhmnmhhhhhhhddhhdhh",
"bbfebffimmbgkjjggjjgfcgjjbbdnkecbcccccccbbefebadmlceefeeccbbaabb",
"bbeecbcfnmdjljjjjjjgjghljjdjmlecbcceifeccefficadmjekigikiiijbbcd",
"ccbbcecfmmgljjjgddjllljjgddjmlccccciifbafieiicbinjfkjgjkjggjgdfd",
"bfcfefcbmmbgbdjjdgjjlmjjgddjmkcbaabeeeeefiiicaagnhillllkjdbggdfg",
"abdfbebcmlccbdjgbcfgjkjhggddnkebbcbaaceiiiffaaadndddjlgdgdbdgddd",
"dllgllionmklikikiklllonllnlmnoilllicefkilljkifilnlklolllkjlkilll",
"opnnpppnmmpppppppppppppnnnnnmnppppppppppnnnnpppnmnnppppppppppppp",
"dgdbbdddbbbabddddmnhgdbbdddgddddddddgmnmhhhjhghhhdhhhhhdjnnhhhhh",
"bffaadfcbaaabbccdlncbbbcceeeceeebiaablnjklkjjjljgjjjjkggknmcdbdd",
"dggdgggficadbgiikmnececikieeeeieccabalnkjjjljjjhhlllllhjlnnfffii",
"ggfijdgdgcacggjglnneecbfiieeieeeiibcajnljkjlklljhjlnljhlknnkffik",
"diijlgdffecbkfcgknneeiifiiiieeeeeieeclmikllljjlmhjllllllknmbfiii",
"eceikieeacfbffffclnkceeieeeeeeeeieifclmljjlljgjjgjjjllljjnnbgkif",
"ooooooooooooloonlonoooloooloooooooooonnoooooooppoooooppopnnonooo",
"nnnnnnnppnnnmmmmnmmmmmmmmmnnpmmmmmmmmmhmmmmmmmnppmmmmmmmmmmmmmmm",
"ecccdgdlnkifbbfcbddffceeegfnndddffdbfgdabdbcbcdnmeeefddffdccceee",
"ififefelnikebcebecfjkfffgignmbikllffkkgcffffeiinlfifcfkiifcbcfie",
"ffdiiiimnkffefbacdjjkddjiijnmbckkbdkjjgfffffbccmmiffeikiecbbbefi",
"fdfkkfelnkiieeffiggggffggjimmbdgcbbdgjdffdifeefnmifiiikjecceffii",
"cddifeimnkfeifediihjjgjkdbbmmggfbabdggdcdffecefmnieiiigjfabcklff",
"kkkkffimnlikiiklllllkllllkknnfggkidklkgfiiiiillnnlliiklkfcbfllkk",
"ppppppppnppppppppppppppppppnnpppppppppppppoppppnnppppppppppppppp",
"hhhhhhhhhhhhhhhhhmnmjhhhhhhhhhhhhhhhjnnhhdhhhddhhhhhhhhhmnmjhhhh",
"ggdgjbfkiffdddfbdmngddikfiffdgdbcifbfmmfcbbcbbbbceebbbabdnlfjjgi",
"ggjdgikkklkkjjjkhmnljillikigfjgdgjiddmmgdgfckigfiiieedciimlilkjg"
};