/* XPM */
static char *wall_north[] = {
"64 64 16 1",
"a" c #827a6c",
"b" c #7a7265",
"c" c #776f60",
"d" c #736d61",
"e" c #716a5d",
"f" c #716758",
"g" c #6d675b",
"h" c #6b6558",
"i" c #6a6254",
"j" c #666054",
"k" c #645c4f",
"l" c #60584b",
"m" c #5a5143",
"n" c #52493b",
"o" c #4b4234",
"p" c #423a2c",
"mecbcabeklhccbabecflnmfbbcfcccabcbffcffkonkiiikmmmlkllkikkkllmmn",
"babaaaaaaaaaaaaaabaaofabbcechebbbbaachaallcjbabegheabcaaaaaabbbh",
"baccbdebbbaaaabbddbgocafiehgihijjiehllfblnehgeikabdbceeidaeejigj",
"kaabbbekggbaaccdgbagocbkiebhfikijjgjkjeenncbbbbbadjhgjkkijihigel",
"lfbaabgjgcddddbecaaiolbhgidiifgjhiificbipmcggkebbgjlieiffiehkkgl",
"meedbbeececchgdgdbemoibbgieeefiifahhachkomiiflljbbdikefffeeihkjl",
"oljcccaeecbceieghlkloledlkdeicjeafkihklknngiebdjkdbdgibbimllkhhm",
"oonllmjeecflmnnommloonmnlkmlffkkkllklmmmoommmlkmnnnlmommnljikkmo",
"moooooooppppppppppoonopppppopppppponnnnnmmooonooooppppppppppppon",
"hfbaaaaacilombbcaabaacabcabiikmolaaaaaaedgbaaacidbamolflkfkkiffe",
"deeedheebcfokbbbabbdcgccbacifbbnkaaabdjjhebdbaglkjdkoickkccifedj",
"dbdjbbbgecfofabbbdaabeddebeijifnlbcdjjieddbdehkkidikolilkkkllkkk",
"ijghdbbbbchomicdhgdccdegdaghedbllaffjljdedbdejibecckolilhikijjjl",
"kkjhebbbdblomhcbejgbcgdeecdeebbmldffgjhgbededeecccempkiiiikkllll",
"jhjlkhdddclokedbbbecbeebcbecaabmkbckhjjigehecgdbbbelolfijgklllkk",
"hhggjjddghnomjlkdegddcbcbaabccbnmbcedhjjkkgcdccceefkokcihhikkikk",
"mmmlmomlhionoooooonnnmmmjklnnnnnnnnooooppomonffllifmomknmllnnmnn",
"pnnnnnnnnmllmmnnoooopppnooonnommlnoonnonnopppppppponmooooooopppo",
"ldhigdikhceedcdjigcenmbbbaaabfaaaaaaaaaaafnbabiciicbbdbbabddccfn",
"mehgijlhhklllkjllkklnnfbbcabckedcaaaaaaaakoebcfbbaaadgbbcbejjden",
"njgeddheddjkjklkjklhmnibabbchfgcbabbcbabfmofbcabdeebddddbdgdhhgm",
"mgbbdgehdhgbkljligiinmfcabbaabhaaaabbabdcmnbbbegeeabegjhbdeaadem",
"kadhdgikjkgdjlmllhiknlbcfeccbehaabaaaaehcnnlhejhggefhgkjgjgdjkhm",
"mgjhdkljjmmklkllkjhhnmcieccbedgjkibaaeeeemmlhhcdhhhddgegggkllljm",
"nklgkmkjjlhhkjjjhjjmoneabchbbedhjfgecieijmmhiebhebegehjigkejhhkm",
"lopoooppponoponnmnopoomknpppopppoooooppppnknnnopnnppopppppnpnlon",
"fikkkflllmmonmmmmmmlkkmnnmmmmnopppnnljmlkicfmnononopppomnoooopmi",
"bbbbbaacaaeoiabcccccbaaffaabbabloiegabkeabbbbbgjgaacnnibckkkbbbc",
"eegcddbcahnofaaciffcfbbikfhkifcmnijjhgghghdhjjgjdbgenmcehllfedeg",
"ejecjlhhhkmofbbblifccffhkkjljffnnklhggdeggddghehbbgeomghjhjehkge",
"kjecgiiedemoecccffibafijkhfiikfmokgddejbcgejkeggbbgholddehgjjkjk",
"hebefceedcmofabccacefediffiieiknokabgejgbdklfiegdhddnlhjcjjjkhhh",
"ihbcfebbeblocabffcfifceikifcccfnnkhhjgdgbghibegiiggeondjhjjhgjjj",
"ehcilicklknokbffffifffciiiffbffnohghkjggedhhegiihijmppleeghjhdhg",
"poooooopoppnnooppopppnnnnnmlmnnooppppppopppppppppoppoopppopppoop",
"nmmnmnnnnlkkilnnoonppponmlklmljkikjklllooooomllmlmlkijkijkjheiln",
"fabfccbbbaaaaabbaaacnmbbbaabddedadaabbafclokabaabbaaaababdeaaahi",
"kcjicbcigdddjhicdaabnkbbaejgegjhjhghhgieblojidejleaaghgdegdabdgl",
"lcheceiggeekjhidbcdhnkbffegdbbhjebbjhhjgeknlgghgjjgdgegeeedhebhn",
"lcigchhgegdjleikgehiomiikebbbdjebdjkegecbknjedhhdhgghliighggddin",
"kbeicbgheddejegeemmiolbefebeaddddbjhhhebbkoicbdhdddgikgghgddabim",
"leieejgjgegjijeemmlkoneeecbhadejgdgjjjeejmomgeehbbekjigcehedhhim",
"nieeggdheehgdbdiefihoolhehhkkkjgegjlkijlknoleecdddjihljjkdhkljkn",
"nnoooopoopppppppoppooopopppppppopppooopppononmnnnoomnnnopopppppo",
"clmjklllihloomkkiihfefiikkhilnoppnkiikifheflmlllllmpppnnmmmkkllk",
"aeabeghcdacokchjhegggdadieccbaakofaaaaaabbaaaabcdcaiokfebabdcchd",
"djhdhjjedciokjkkkkkhjhbhjijjhebinfcfcabceccffcbikfbkpiaagjhkkjhj",
"ddddgjjhhhkokikjjjjghgdhhgehkjemnifeebacfiibbbijiicipkbgjhjjjgeh",
"ddgeehjkjghokggeiihgjheghgchlihlnclfbehiffffececiiilpmkljdegggjk",
"jdehdehhjdholgeekjhgjhhjjheikjglokiifikfficffikhcfknofgjhhhhhikl",
"glmlkhgkjdholfejjjdhklmllkfikkkmolcfihcbfifcbflkacfloeeklmjhgjgj",
"kkmnmljmjgmomjiedeghehkjjjlkkkjlnmfccfcfifiiccccbbalpmlljjjjkjjj",
"oooppppppponoppppooonnnonmnonoopmnmnoopppooopnnnnomnoppppopppppp",
"ommnnnnnnmmmmnmmooooonkfhjlilkkifilkkkjknoonnnnnnlmlllmmnnnooooo",
"naaabedddgcbbaaaaabdlmcegiighddaaabedbbaamlecfcdbaabdaaabdgkkkhm",
"ncbaciebehhcbbccaahhlnjjdehhhgjhjhehhhhehmmjijgcddeebedaehhehkdm",
"mebbbhcbeegheeecbbggmmejdejjkjhdedbddejedmmeekhbbdcdejjedgdddbdm",
"lbdhdbecbjjkhbeddedakmdecghhhhgebddbdghdbmokjjjhhggkkdghhjjhdbbm",
"mgchgbeggjgejdcahiebmmbeecbdhghjhdhegghgjonkjgihggekhjhgdbdeklhm",
"nhhededbghgddgejlkhgnmgkkdggjheehkjkkjjkjnmeghjhgedkkjkgaaekkhjn",
"nmmieghkmmjeehmmkjhdnnhhddhlhjhjigkhgjggenleggdegghgggjhedjhddin",
"nnnnnoopooooppppnmopoppoooonononnmnpommnnnnnnmmmmmljllmnnmjllmln",
"hkmnooonmmmllklilnnnmlmnonnooonnmnnnoonmjflnnnnonooopponooooooon",
"egjhikillmgkkgaaaehjhdbdjhhhijikdgedhhdbadjdhghddgjknnlikjjkliii"
};